<?xml version="1.0" encoding="utf-8"?>
<!-- Generator: Adobe Illustrator 25.4.1, SVG Export Plug-In . SVG Version: 6.00 Build 0)  -->
<svg version="1.1" id="Layer_1" xmlns="http://www.w3.org/2000/svg" xmlns:xlink="http://www.w3.org/1999/xlink" x="0px" y="0px"
	 viewBox="0 0 595.28 841.89" style="enable-background:new 0 0 595.28 841.89;" xml:space="preserve">
<style type="text/css">
	.st0{stroke:#000000;stroke-miterlimit:10;}
</style>
<g>
	<path class="st0" d="M211.32,380.2c-0.09,2.36,0.64,4.79,3.21,6.51c7.24,4.86,52.82-4.06,78.65-4.06c9.14,0,16.02,8.78,13.25,17.48
		c-0.05,0.14-0.09,0.3-0.14,0.44c-1.54,4.56-5.8,7.65-10.61,7.84c-16.96,0.6-60.96,2.18-75.69,2.7c-4.45,0.16-8.43,3.25-9.21,7.63
		c-0.3,1.76-0.11,3.69,1.03,5.61c1.54,2.61,4.4,4.1,7.42,4.31c11.11,0.71,47.73,2.98,74.52,3.71c6.78,0.18,12.56,5.43,12.83,12.19
		v0.37c0.18,7.24-6.03,13.02-13.25,12.67c-18.86-0.89-58.76-2.8-73.95-3.53c-5-0.23-9.14,4.33-7.93,9.19
		c0.09,0.37,0.21,0.73,0.34,1.08c0.85,2.04,2.75,3.44,4.26,3.85l27.64,9.3l41,11.21c18.24,3.12,51.84,12.17,91.19-19.2l0.96-0.76
		c0.46-0.66,6.96-6.19,15.76-19.79l81.3,14.17l1.12,0.2c-19.84,75-87.84,132.84-169.07,132.84c-98.17,0-177.5-80.75-175.17-179.45
		c2.22-94.11,79.86-170.33,173.97-170.97c81.37-0.53,149.94,54.4,170.26,129.2h-0.02l-81.8,13.53c0,0-24.41-56.75-95.4-39.58
		l-78.19,21.36C215.04,371.47,211.48,375.46,211.32,380.2z"/>
</g>
</svg>
